<svg id="Calque_1" data-name="Calque 1" xmlns="http://www.w3.org/2000/svg" viewBox="0 0 290.28 80.61"><defs><style>.cls-1,.cls-4{fill:#fff;}.cls-2{fill:#0a0a0b;}.cls-3{fill:#c7135d;stroke-miterlimit:10;stroke-width:1.95px;}.cls-3,.cls-4{stroke:#fff;}.cls-4{stroke-width:1.06px;}</style></defs><title>logo-souse</title><circle class="cls-1" cx="82.51" cy="37.12" r="37.12"/><rect class="cls-1" x="112.01" y="64.25" width="13.46" height="27.95" rx="4.44" ry="4.44" transform="translate(252.8 39.16) rotate(135)"/><path class="cls-2" d="M65.29,70.14a31.91,31.91,0,1,1,22.53,9.31,31.65,31.65,0,0,1-11.54-2.17l-21.19,9.5Z" transform="translate(-5.22 -10.42)"/><path class="cls-1" d="M87.82,17.49A30,30,0,1,1,76.24,75.26L59.82,82.62l7.84-12.79A30,30,0,0,1,87.82,17.49m0-3.72A33.77,33.77,0,0,0,63,70.39l-6.3,10.28L50.36,90.93l11-4.92,15-6.72A33.76,33.76,0,1,0,87.82,13.77Z" transform="translate(-5.22 -10.42)"/><circle class="cls-3" cx="69.26" cy="36.89" r="4.09"/><circle class="cls-3" cx="82.58" cy="36.89" r="4.09"/><circle class="cls-3" cx="95.91" cy="36.89" r="4.09"/><path class="cls-1" d="M209,63.93c-1.16,3.28.82,7.82-.53,10.23s-1.41,2-2.86,3.69a23.67,23.67,0,0,1-4.46,4,22.11,22.11,0,0,1-4.43,2.37,19.66,19.66,0,0,1-4.13,1.12,24.46,24.46,0,0,1-3.59.3,11.87,11.87,0,0,1-8.38-2.87q-3.11-2.87-3.77-8.61a30.08,30.08,0,0,1-4.73,6,22.34,22.34,0,0,1-4.73,3.49,15.29,15.29,0,0,1-4.55,1.63,24.25,24.25,0,0,1-4.13.38,15.63,15.63,0,0,1-5.15-.83,10.73,10.73,0,0,1-4.16-2.6,12.44,12.44,0,0,1-2.78-4.5,18.82,18.82,0,0,1-1-6.57,30.7,30.7,0,0,1,.24-3.64q.24-2,.72-4.29l8.32-38.89H172.5l-8.8,41.2a18.6,18.6,0,0,0-.36,3.43,7.36,7.36,0,0,0,.78,3.52A3,3,0,0,0,167,73.94a6.88,6.88,0,0,0,3.29-.8A9.55,9.55,0,0,0,173,70.92a14.72,14.72,0,0,0,2.15-3.4,33.92,33.92,0,0,0,1.65-4.29l8.32-38.89h17.65L194,65.54a12,12,0,0,0-.42,2,15.68,15.68,0,0,0-.12,1.92q0,2.55,1.23,3.52a6.06,6.06,0,0,0,3.8,1,7.05,7.05,0,0,0,3.32-.8,9.76,9.76,0,0,0,2.78-2.22,14.82,14.82,0,0,0,2.21-3.4,26.76,26.76,0,0,0,1.62-4.29Z" transform="translate(-5.22 -10.42)"/><path class="cls-1" d="M258.32,63.23a61.66,61.66,0,0,1-9.6,9.09,95.06,95.06,0,0,1-9.12,6.07,19.62,19.62,0,0,1-4.28,3.4A26.1,26.1,0,0,1,230.4,84a29.64,29.64,0,0,1-5.15,1.24,33.88,33.88,0,0,1-4.94.38,20.92,20.92,0,0,1-8-1.39,16.8,16.8,0,0,1-5.59-3.61,14.11,14.11,0,0,1-3.26-5,15.47,15.47,0,0,1-1-5.53,13.07,13.07,0,0,1,.57-3.94A13.77,13.77,0,0,1,204.46,63a11.42,11.42,0,0,1,2.06-2.46A10.25,10.25,0,0,1,209,58.91a146.6,146.6,0,0,0,8.68-18c2.35-5.94,4.07-10.62,6-16.61l18-6.27c.24,5.25,1,12.41,1.25,16.26s.43,7.18.63,10,.38,5.22.54,7.19.31,3.72.45,5.24.24,2.9.3,4.14.09,2.54.09,3.88q0,1.36-.09,2.49a10.37,10.37,0,0,1-.39,2.13q2.69-1.54,4.88-3a41.21,41.21,0,0,0,3.92-3ZM209,67.61q0,4.26,1.71,6.36t5.77,2.1a13.93,13.93,0,0,0,3.95-.56,8.79,8.79,0,0,0,3.41-1.89,9.47,9.47,0,0,0,2.39-3.46,13.78,13.78,0,0,0,.9-5.33q0-1.54-.09-3t-.21-3.08q-.12-1.63-.33-3.64T226,50.44q-.27-2.66-.57-6.16t-.66-8.17a101.9,101.9,0,0,1-4.37,11.48q-2.51,5.56-5.56,11.42a6.56,6.56,0,0,1,2,1.66,3.94,3.94,0,0,1,.81,2.55,6.81,6.81,0,0,1-.36,2.19,5.91,5.91,0,0,1-1.08,1.92,5.38,5.38,0,0,1-1.71,1.36,4.87,4.87,0,0,1-2.24.5,6.06,6.06,0,0,1-1.91-.3A2.32,2.32,0,0,1,209,67.61Z" transform="translate(-5.22 -10.42)"/><path class="cls-1" d="M289.1,67.73a26.28,26.28,0,0,1-3,8.7,18.3,18.3,0,0,1-4.85,5.51,17.25,17.25,0,0,1-6.22,2.9,30.07,30.07,0,0,1-7.12.83,26.1,26.1,0,0,1-7.81-1.09,14.76,14.76,0,0,1-9.84-9.35,24.92,24.92,0,0,1-1.38-8.79,52.5,52.5,0,0,1,.72-8.05A61.09,61.09,0,0,1,251.88,49,52.77,52.77,0,0,1,256,39.61a37.06,37.06,0,0,1,6.22-8.26,28.79,28.79,0,0,1,8.56-5.86A26.87,26.87,0,0,1,282,23.27a19.46,19.46,0,0,1,6.73,1,10.89,10.89,0,0,1,4.13,2.57,8.51,8.51,0,0,1,2.09,3.7,16.61,16.61,0,0,1,.57,4.35,21.07,21.07,0,0,1-2.33,9.8,26.17,26.17,0,0,1-6.25,7.9,32.44,32.44,0,0,1-9,5.45,33.62,33.62,0,0,1-10.59,2.43q-.12,1-.21,1.92T267,64.12a16.81,16.81,0,0,0,.6,4.85,8.32,8.32,0,0,0,1.62,3.11,5.57,5.57,0,0,0,2.39,1.63,9.13,9.13,0,0,0,3,.47,14.15,14.15,0,0,0,3.74-.53,23.66,23.66,0,0,0,3.83-1.42,32.09,32.09,0,0,0,3.68-2A24.6,24.6,0,0,0,289.1,67.73ZM268.15,54.65a15.12,15.12,0,0,0,6.76-1.86,21.24,21.24,0,0,0,5.71-4.5,21.7,21.7,0,0,0,3.95-6.3A19.07,19.07,0,0,0,286,34.64a8.37,8.37,0,0,0-.66-3.61A2.42,2.42,0,0,0,283,29.67a6.5,6.5,0,0,0-4.58,2.28,25.75,25.75,0,0,0-4.19,5.89,58.38,58.38,0,0,0-3.53,8.05A72.8,72.8,0,0,0,268.15,54.65Z" transform="translate(-5.22 -10.42)"/><path class="cls-4" d="M46.15,61.39a17.51,17.51,0,0,0-6.25-5.67,53.22,53.22,0,0,0-11.76-4.41c-4.92-1.35-8.53-2.9-10.71-4.63a7.54,7.54,0,0,1-3.08-6.26,8,8,0,0,1,3.45-6.77C20.17,31.87,22.94,31,27,31s7.54,1.1,10,3.27a10.83,10.83,0,0,1,3.63,8.58v1h6.81v-1a17,17,0,0,0-2.6-9.19,17.55,17.55,0,0,0-7.3-6.42A23.74,23.74,0,0,0,27,24.93c-5.74,0-10,1.43-13.75,4.26a14,14,0,0,0,.43,22.94c2.77,2,7.19,3.86,13.13,5.53,5.69,1.6,9.63,3.28,11.71,5a8.73,8.73,0,0,1-.65,13.59C35.41,78.07,32,79,27.87,79c-4.7,0-8.49-1.09-11.27-3.25a10.25,10.25,0,0,1-4.08-8.65v-1H5.75v1A16.48,16.48,0,0,0,8.5,76.46a17.8,17.8,0,0,0,8,6.34A28.71,28.71,0,0,0,27.87,85c6,0,11-1.43,14.68-4.24a13.79,13.79,0,0,0,5.73-11.51A14.4,14.4,0,0,0,46.15,61.39Z" transform="translate(-5.22 -10.42)"/></svg>